<?xml version="1.0" encoding="UTF-8" standalone="no"?>
<svg
   version="1.0"
   width="640px"
   height="640px"
   viewBox="0 0 640 640"
   preserveAspectRatio="xMidYMid meet"
   id="svg26"
   sodipodi:docname="logoo.svg"
   inkscape:version="1.4.4 (1:1.4.4+202605061436+dcaf3e7d9e)"
   xmlns:inkscape="http://www.inkscape.org/namespaces/inkscape"
   xmlns:sodipodi="http://sodipodi.sourceforge.net/DTD/sodipodi-0.dtd"
   xmlns="http://www.w3.org/2000/svg"
   xmlns:svg="http://www.w3.org/2000/svg">
  <defs
     id="defs26">
    <rect
       x="135.9519"
       y="336.03206"
       width="265.49098"
       height="142.36473"
       id="rect27" />
  </defs>
  <sodipodi:namedview
     id="namedview26"
     pagecolor="#ffffff"
     bordercolor="#000000"
     borderopacity="0.25"
     inkscape:showpageshadow="2"
     inkscape:pageopacity="0.0"
     inkscape:pagecheckerboard="0"
     inkscape:deskcolor="#d1d1d1"
     inkscape:zoom="5.6568543"
     inkscape:cx="51.000076"
     inkscape:cy="18.649941"
     inkscape:window-width="1366"
     inkscape:window-height="704"
     inkscape:window-x="0"
     inkscape:window-y="0"
     inkscape:window-maximized="1"
     inkscape:current-layer="svg26" />
  <g
     fill="#b99c66"
     id="g26"
     transform="translate(3.627642,-12.696747)">
    <path
       d="m 377.65,458.75 c 0,-1.35 0.1,-1.9 0.2,-1.1 0.1,0.75 0.1,1.85 0,2.5 -0.1,0.6 -0.2,0 -0.2,-1.4 z"
       id="path22" />
    <path
       d="m 467.65,387 c 0,-2.05 0.1,-2.9 0.2,-1.85 0.1,1 0.1,2.7 0,3.75 -0.1,1 -0.2,0.15 -0.2,-1.9 z"
       id="path23" />
    <path
       d="m 411.15,373.5 c 0,-1.25 0.1,-1.75 0.2,-1.1 0.1,0.6 0.1,1.6 0,2.25 -0.1,0.6 -0.2,0.1 -0.2,-1.15 z"
       id="path24" />
    <rect
       style="fill:#ffffff;fill-opacity:1"
       id="rect4"
       width="567.72595"
       height="273.88696"
       x="47.159348"
       y="30.834953" />
    <path
       d="m 467.65,347.75 c 0,-2.2 0.1,-3.05 0.2,-1.85 0.1,1.15 0.1,2.95 0,4 -0.1,1 -0.2,0.05 -0.2,-2.15 z"
       id="path25" />
    <path
       d="m 315.27235,279.75366 -8.9,-0.15 v -38.9 -38.9 l 9.15,0.2 c 5,0.1 9.25,0.35 9.45,0.55 0.3,0.25 0.6,59.35 0.4,76.95 0,0.3 -0.3,0.55 -0.6,0.5 -0.35,-0.05 -4.65,-0.2 -9.5,-0.25 z"
       id="path26"
       inkscape:transform-center-x="3.627642"
       inkscape:transform-center-y="-58.042272" />
  </g>
  <g
     fill="#04152b"
     id="g3"
     transform="matrix(1.0002319,0,0,1.0003357,7.9864575,3.789303)">
    <path
       d="M -8,316 V -4 H 312 632 V 316 636 H 312 -8 Z m 250.5,-40.45 c 2.9,-0.8 8.4,-2.3 12.25,-3.3 3.85,-1 10.5,-2.75 14.75,-3.85 4.25,-1.1 10.5,-2.65 13.9,-3.4 3.5,-0.8 6.55,-1.75 7.15,-2.25 0.95,-0.9 0.95,-2.35 0.95,-92 0,-86.05 -0.05,-91.2 -0.85,-92.2 C 290.15,78 283,74 274.75,69.7 c -8.25,-4.3 -19.95,-10.4 -26,-13.55 -6.05,-3.2 -11.5,-5.95 -12.1,-6.2 L 235.5,49.5 v 114.05 c 0,108.35 0.05,114 0.9,113.75 0.45,-0.15 3.2,-0.95 6.1,-1.75 z M 387.5,163.3 V 49.1 l -9.1,4.85 c -5.05,2.7 -14,7.45 -19.9,10.65 -5.9,3.15 -13.65,7.3 -17.25,9.15 -3.55,1.9 -7.1,3.85 -7.85,4.35 l -1.4,0.95 v 91.15 c 0,86.15 0.05,91.2 0.9,91.95 0.8,0.75 12.45,4.05 31.85,9.1 4.95,1.3 12.05,3.2 15.75,4.25 3.7,1.1 6.8,1.95 6.9,1.95 0.05,0.05 0.1,-51.35 0.1,-114.15 z m -68.1,60.1 -0.15,-37.15 -7.85,-0.15 -7.9,-0.15 v 37.3 37.25 h 8 8 z"
       id="path1"
       sodipodi:nodetypes="cccccccccsssccscscccscssccccccsccccsccccccccc" />
    <path
       d="m 259.55,474.55 c -1.15,-0.75 -0.4,-4.85 1.75,-9.8 1.05,-2.45 2.5,-6.75 3.2,-9.5 l 1.25,-5 2.75,-0.15 2.75,-0.15 1.1,2.9 c 0.6,1.6 1.55,4.6 2.15,6.65 0.6,2.05 1.75,5.05 2.55,6.6 1.7,3.35 2.05,8.05 0.65,8.6 -1.25,0.45 -17.35,0.35 -18.15,-0.15 z"
       id="path2" />
    <path
       d="m 87.65,379.15 c -1.75,-0.35 -1.5,-2.3 1.55,-11.35 1.5,-4.4 3.1,-9.85 3.55,-12.05 1.2,-5.55 1.35,-5.75 4,-5.75 h 2.2 l 1.55,5.15 c 0.85,2.8 2.65,8.6 4.05,12.9 1.35,4.3 2.45,8.5 2.45,9.3 v 1.5 l -4.85,0.3 c -5.25,0.35 -12.65,0.35 -14.5,0 z"
       id="path3" />
    <text
       xml:space="preserve"
       style="font-style:normal;font-variant:normal;font-weight:bold;font-stretch:normal;font-size:85.3333px;line-height:98.0996px;font-family:'Arial';-inkscape-font-specification:'Arial Bold';text-align:center;letter-spacing:3.33px;writing-mode:lr-tb;direction:ltr;text-anchor:middle;fill:#ffffff;fill-opacity:1"
       x="324.01157"
       y="417.40152"
       id="text26"><tspan
         sodipodi:role="line"
         id="tspan26"
         x="324.01157"
         y="417.40152">ALLUGUEL</tspan><tspan
         sodipodi:role="line"
         x="324.01157"
         y="515.5011"
         id="tspan29" /><tspan
         sodipodi:role="line"
         x="324.01157"
         y="613.60071"
         id="tspan27" /></text>
    <text
       xml:space="preserve"
       id="text27"
       style="font-size:85.3333px;writing-mode:lr-tb;direction:ltr;white-space:pre;shape-inside:url(#rect27);display:inline;fill:#ffffff;fill-opacity:1" />
    <text
       xml:space="preserve"
       style="font-style:normal;font-variant:normal;font-weight:600;font-stretch:normal;font-size:74.6667px;line-height:85.8372px;font-family:'Arial';-inkscape-font-specification:'Arial Semi-Bold';letter-spacing:14.61px;writing-mode:lr-tb;direction:ltr;fill:#ffffff;fill-opacity:1"
       x="192.22919"
       y="507.10974"
       id="text30"
       inkscape:transform-center-x="1.2825651"
       inkscape:transform-center-y="-3.8476953"><tspan
         sodipodi:role="line"
         id="tspan30"
         x="192.22919"
         y="507.10974">FÁCIL</tspan></text>
    <rect
       style="fill:#b99c66;fill-opacity:1;stroke-width:1.01016"
       id="rect30"
       width="249.40038"
       height="5.8949184"
       x="199.06686"
       y="515.12512" />
  </g>
</svg>
